<svg width="12" height="14" viewBox="0 0 12 14" fill="none" xmlns="http://www.w3.org/2000/svg">
    <path fill-rule="evenodd" clip-rule="evenodd" d="M6.40887 13.9017C7.76059 13.1685 12 10.5223 12 6.17359C12 2.76401 9.31371 0 6 0C2.68629 0 0 2.76401 0 6.17359C0 10.5223 4.2394 13.1685 5.59113 13.9017C5.84811 14.0411 6.15189 14.0411 6.40887 13.9017ZM6.00002 8.81941C7.42018 8.81941 8.57145 7.63483 8.57145 6.17358C8.57145 4.71234 7.42018 3.52776 6.00002 3.52776C4.57986 3.52776 3.42859 4.71234 3.42859 6.17358C3.42859 7.63483 4.57986 8.81941 6.00002 8.81941Z" fill="#222222"/>
</svg>
