<svg width="12" height="12" viewBox="0 0 12 12" fill="none" xmlns="http://www.w3.org/2000/svg">
    <path fill-rule="evenodd" clip-rule="evenodd" d="M6 12C9.31371 12 12 9.31371 12 6C12 2.68629 9.31371 0 6 0C2.68629 0 0 2.68629 0 6C0 9.31371 2.68629 12 6 12ZM6.5 2.33333C6.5 2.05719 6.27614 1.83333 6 1.83333C5.72386 1.83333 5.5 2.05719 5.5 2.33333V5.75C5.5 6.16421 5.83579 6.5 6.25 6.5H8.33333C8.60948 6.5 8.83333 6.27614 8.83333 6C8.83333 5.72386 8.60948 5.5 8.33333 5.5H6.5V2.33333Z" fill="#222222"/>
</svg>
