<svg xmlns="http://www.w3.org/2000/svg" width="874.648" height="420.91" viewBox="0 0 874.648 420.91">
    <g id="Group_4" data-name="Group 4" transform="translate(-877.676 -769.545)">
        <circle id="Ellipse_1" data-name="Ellipse 1" cx="70.055" cy="70.055" r="70.055" transform="translate(1612.215 769.545)" fill="#630a0d"/>
        <g id="Group_3" data-name="Group 3">
            <path id="Path_2" data-name="Path 2" d="M1662.326,821.236c4.53-11.03,15.83-22.07,28.45-20.21,8.64,3.53,3.39,12.54-.03,17.95-3.62-8.93-13.69-8.28-20.23-2.94,10.52,13.3,27.49,10.21,41.07,4.54-1.02,4.67-2.89,11.208-7.01,12.66-16.22,3.75-30.22,13.25-45.53,19.33-.8-10.04,7.12-14.56,15.25-17.65C1669.236,831.9,1661.166,828.336,1662.326,821.236Z" fill="#630a0d"/>
            <path id="Path_3" data-name="Path 3" d="M877.676,863.186c2.38-14.83,11.69-36.815,25.59-37.5,12.7,3.77,17.725,18.219,21.66,29.54,17.79,51.182,17.208,106.54,28.74,159.27,4.507,20.611,14.213,34.064,30.15,41.81,15.5,7.535,45.055,9.384,62.37,8.86a885.34,885.34,0,0,0,142.11-16.16c59.98-11.31,119.89-23.11,179.59-35.8-.542-5.78-11.6-21.785-22.02-24.07a212.9,212.9,0,0,0-44.72,5.65c-69.36,11.58-138.332,27.876-208.99,29.44-12.228.27-32.708-1.451-43.941-4.432-5.271-1.4-9.486-5.33-9.793-10.775a16.121,16.121,0,0,1,.494-5.333c7.5-25.861,30.64-47.35,52.72-64.34,30.98-20.29,66.24-34.19,102.23-42.61-5.358,10.1-8.48,17.89-14.62,25.15-45.42,13.04-95.28,28.33-124.81,67.9a170.79,170.79,0,0,0,54.67,5.29c80.19-2.35,158.58-20.08,237.46-32.82,5.06-.45,10.833-1.9,15.53.7,17.14,9.475,28,28.555,28.07,47.97.039,11.407-6.72,19.17-12.84,28.4-4.03-.53-9.06.99-13.11.71-4.97,21.82,10.83,50.29,35.82,46.59,19.48-1.09,33.613-23.343,47.02-26.09,17.54-.04,34.56,14.49,52.58,7.04-2.84-10.87-10.55-19.33-18.95-26.3.29-9.18,5.378-23.6,8.47-27.84,20.42,12.88,20.753,40.42,15.65,61.96-1.9,8-7,16.57-14.7,20.04,5.15,22.55,20.66,45.97,44.41,52.07,44.2,6.15,86.26-23.1,109.63-58.72,9.74-12.76-3.242-30.8-9.84-38-4.976-4.976-9.157-8.426-14.98-14.25,2.976-10.016,7.632-24.146,9.81-28.93,21.46,21.46,28.325,44.524,27.08,66.17-1.62,39.78-31.78,72.08-65.43,89.73-29.24,14.14-62.758-.713-82-25.2-9.776-12.44-16.641-23.7-21.53-42.48-15.09.62-29.43-4.84-43.51-9.51-10.59-4.7-14.7,5.224-23.08,14.03-12.677,13.327-36.8,21.749-50.24,6.34-15.213-17.437-18.81-43.61-12.2-65.9-104.97,16.77-208.109,49.755-315.04,51.28-29.5.421-63.126-1.689-85.24-22.93-16.306-15.662-18.861-39.913-22.33-61.17-7.034-43.1-7.75-87.68-21.02-129.52-4.26-9.33-7.86-21.77-18.79-25.08C887.3,850.706,883.745,857.117,877.676,863.186Z" fill="#630a0d"/>
            <path id="Path_4" data-name="Path 4" d="M1534.426,891.1c-1.958-10.752,2.407-29.5,13.67-42.74,0,3.468.387,12.374,2.88,29.81,7.812,54.65,19.344,110.733,22.65,164.32,1.222,19.817,2.65,40.84-6.13,59.09-1.548,2.46-2.81,1.634-3.09-2.08C1560.516,1035.276,1546.216,954.256,1534.426,891.1Z" fill="#630a0d"/>
            <path id="Path_5" data-name="Path 5" d="M1676.426,902.1c-1.958-10.752,2.407-29.5,13.67-42.74,0,3.468.387,12.374,2.88,29.81,7.812,54.65,19.344,110.733,22.65,164.32,1.222,19.817,2.65,40.84-6.13,59.09-1.548,2.46-2.81,1.634-3.09-2.08C1702.516,1046.276,1688.216,965.256,1676.426,902.1Z" fill="#630a0d"/>
            <path id="Path_6" data-name="Path 6" d="M1470.146,1147.545c10.9,6.76,22.033,12.669,27.91,17.42-5.314,8.506-9.68,17.47-14.69,25.49-9.57-5.17-18.66-11.15-27.9-16.88C1461.349,1164.156,1464.348,1157.987,1470.146,1147.545Z" fill="#630a0d"/>
            <path id="Path_7" data-name="Path 7" d="M1405.146,1133.545c10.9,6.76,22.033,12.669,27.91,17.42-5.314,8.506-9.68,17.47-14.69,25.49-9.57-5.17-18.66-11.15-27.9-16.88C1396.349,1150.156,1399.348,1143.987,1405.146,1133.545Z" fill="#630a0d"/>
            <path id="Path_8" data-name="Path 8" d="M1365.146,1141.545c10.9,6.76,22.033,12.669,27.91,17.42-5.314,8.506-9.68,17.47-14.69,25.49-9.57-5.17-18.66-11.15-27.9-16.88C1356.349,1158.156,1359.348,1151.987,1365.146,1141.545Z" fill="#630a0d"/>
            <g id="Group_2" data-name="Group 2">
                <path id="Path_9" data-name="Path 9" d="M980.908,1153.7l-8.59-24.84-.05-.12a1.389,1.389,0,0,0-1.24-.75h-6.09a1.178,1.178,0,0,0-1.25.97l-2.15,6.13c-1.15,3.28-2.27,6.43-3.37,9.49-.93,2.61-1.84,5.15-2.72,7.67l-8.51,23.96a1.34,1.34,0,0,0,.2,1.18,1.307,1.307,0,0,0,1.05.47h1.98a1.178,1.178,0,0,0,1.25-.97l6.92-19.55h14.77c.96,2.85,4.69,13.83,6.72,19.55a1.178,1.178,0,0,0,1.25.97h6.43a1.3,1.3,0,0,0,1.03-.49,1.391,1.391,0,0,0,.19-1.26C987.228,1171.943,984.158,1163.083,980.908,1153.7Zm-20.92-.75,5.8-16.48,5.69,16.48Z" fill="#630a0d"/>
                <path id="Path_10" data-name="Path 10" d="M1048.668,1176.483h-.01c-2.21-.17-3.77-.91-6.66-4.6l-6.85-9.11-6.74-8.69c5.55-.22,17.28-1.52,17.28-13.06,0-8.4-6.87-13.03-19.33-13.03h-16.21a1.263,1.263,0,0,0-1.27,1.34v11.28c0,7.4-.03,16-.05,23.24-.01,5.26-.02,9.81-.02,12.67a1.328,1.328,0,0,0,1.34,1.34h6.02a1.263,1.263,0,0,0,1.27-1.34v-22.14c6,7.76,10.23,12.64,14.03,16.96a51.7,51.7,0,0,0,4.76,5.04c3.5,3.09,5.13,3.26,7.47,3.26h4.89a1.33,1.33,0,0,0,1.34-1.35v-.54A1.243,1.243,0,0,0,1048.668,1176.483Zm-31.23-26.81v-17.22h7.69c7.84,0,11.65,2.8,11.65,8.57,0,5.82-3.81,8.65-11.65,8.65Z" fill="#630a0d"/>
                <path id="Path_11" data-name="Path 11" d="M1090.128,1153.7l-8.59-24.84-.05-.12a1.378,1.378,0,0,0-1.24-.75h-6.08a1.2,1.2,0,0,0-1.26.97l-2.15,6.13c-1.14,3.28-2.26,6.42-3.36,9.47-.93,2.62-1.84,5.17-2.73,7.69l-8.5,23.96a1.308,1.308,0,0,0,.2,1.18,1.282,1.282,0,0,0,1.04.47h1.98a1.2,1.2,0,0,0,1.26-.97l6.91-19.55h14.78c.96,2.85,4.69,13.83,6.71,19.55a1.2,1.2,0,0,0,1.26.97h6.43a1.276,1.276,0,0,0,1.02-.49,1.362,1.362,0,0,0,.19-1.26C1096.458,1171.943,1093.378,1163.083,1090.128,1153.7Zm-20.92-.75,5.81-16.48,5.69,16.48Z" fill="#630a0d"/>
                <path id="Path_12" data-name="Path 12" d="M1147.208,1151.113a11.187,11.187,0,0,0,6.13-10.16c0-8.12-7.23-12.96-19.33-12.96h-14.64a1.328,1.328,0,0,0-1.34,1.34v47.19a1.328,1.328,0,0,0,1.34,1.34h17.17c17,0,19.53-8.9,19.53-14.2C1156.068,1157.633,1153.018,1153.333,1147.208,1151.113Zm-20.54-18.66h6.04c7.89,0,11.72,2.78,11.72,8.5,0,5.68-3.83,8.44-11.72,8.44h-6.04Zm8.78,40.95h-8.78v-19.55h8.78c7.55,0,11.72,3.41,11.72,9.6C1147.168,1169.873,1143,1173.4,1135.448,1173.4Z" fill="#630a0d"/>
                <path id="Path_13" data-name="Path 13" d="M1183.868,1127.993h-5.95a1.263,1.263,0,0,0-1.34,1.27v48.6h7.36a1.263,1.263,0,0,0,1.27-1.34v-47.26A1.263,1.263,0,0,0,1183.868,1127.993Z" fill="#630a0d"/>
                <path id="Path_14" data-name="Path 14" d="M1250.438,1167.193a1.274,1.274,0,0,0-1.23-.41,1.118,1.118,0,0,0-.72.54,17.848,17.848,0,0,1-13.19,5.73c-11.44,0-20.75-10.41-20.75-23.21,0-12.61,8.56-18.35,16.51-18.35,7.87,0,12.47,2.53,15.38,8.48a1.242,1.242,0,0,0,1.64.6l.53-.24a1.279,1.279,0,0,0,.84-1.67l-.05-.12a19.027,19.027,0,0,0-16.5-11.17,26.988,26.988,0,0,0-16.27,4.2c-7.04,4.6-10.92,12.19-10.92,21.35,0,14.61,11.1,25.62,25.83,25.62,8,0,14.84-3.35,19.27-9.44l.09-.14a1.307,1.307,0,0,0-.26-1.56Z" fill="#630a0d"/>
                <path id="Path_15" data-name="Path 15" d="M1309.35,1176.114c-1.49-4.162-4.555-12.995-7.8-22.347l-8.61-24.9-.051-.121a1.372,1.372,0,0,0-1.236-.758h-6.087a1.184,1.184,0,0,0-1.253.975l-2.153,6.125c-1.143,3.28-2.265,6.421-3.358,9.476-.933,2.614-1.845,5.164-2.728,7.686l-8.508,23.958a1.315,1.315,0,0,0,.2,1.181,1.272,1.272,0,0,0,1.042.472h1.983a1.184,1.184,0,0,0,1.253-.973l6.912-19.544h14.779c.958,2.851,4.687,13.831,6.717,19.545a1.182,1.182,0,0,0,1.252.972h6.428a1.286,1.286,0,0,0,1.025-.483A1.382,1.382,0,0,0,1309.35,1176.114Zm-17.245-23.163h-11.494l5.8-16.474Z" fill="#630a0d"/>
            </g>
        </g>
        <path id="Path_16" data-name="Path 16" d="M1711.588,820.576c-1.02,4.67-2.89,11.21-7.01,12.66-16.22,3.75-30.22,13.25-45.53,19.33-.8-10.04,7.12-14.56,15.25-17.65-5.06-3.02-13.13-6.58-11.97-13.68,4.53-11.03,15.83-22.07,28.45-20.21,8.64,3.53,3.39,12.54-.03,17.95-3.62-8.93-13.69-8.28-20.23-2.94C1681.038,829.336,1698.008,826.246,1711.588,820.576Z" fill="#fff"/>
        <path id="Path_17" data-name="Path 17" d="M1695.838,908.336a69.774,69.774,0,0,1-13.57,1.32c-1.5,0-2.99-.05-4.46-.14q-.69-3.75-1.38-7.42c-1.96-10.75,2.41-29.5,13.67-42.74,0,3.47.39,12.37,2.88,29.81Q1694.343,898.721,1695.838,908.336Z" fill="#fff"/>
    </g>
</svg>
