<svg xmlns="http://www.w3.org/2000/svg" width="316.46" height="316.14" viewBox="0 0 316.46 316.14">
    <g id="Group_1" data-name="Group 1" transform="translate(-3826.41 -821.77)">
        <path id="Path_1" data-name="Path 1" d="M3984.64,821.77a158.231,158.231,0,0,0-10.08,316.14c-1.04-5.65-2.08-11.22-3.12-16.75-4.42-24.28,5.45-66.63,30.88-96.54,0,7.84.88,27.94,6.51,67.33q3.075,21.585,6.46,43.3a158.239,158.239,0,0,0-30.65-313.48Zm50.39,143.85c-36.64,8.47-68.26,29.93-102.84,43.67-1.81-22.68,16.08-32.89,34.44-39.87-11.43-6.82-29.65-14.86-27.03-30.9,10.23-24.91,35.75-49.85,64.26-45.65,19.51,7.97,7.65,28.33-.07,40.55-8.18-20.17-30.92-18.71-45.69-6.65,23.76,30.05,62.09,23.07,92.76,10.26C4048.56,947.58,4044.33,962.35,4035.03,965.62Z" fill="#630a0d"/>
    </g>
</svg>
