<svg width="16" height="16" viewBox="0 0 16 16" fill="none" xmlns="http://www.w3.org/2000/svg">
  <path d="M7.99969 0.833008C11.1566 0.833008 13.8337 3.0859 13.8337 6V6.81738C13.8469 6.83402 13.8602 6.84953 13.8718 6.86426C13.8943 6.89283 13.9132 6.91696 13.9245 6.93066L13.9372 6.94629C14.2411 7.31537 14.4871 7.61407 14.6696 7.87305C14.8578 8.14039 15.0009 8.39501 15.0798 8.68359C15.1961 9.10966 15.1961 9.55634 15.0798 9.98242C14.971 10.3804 14.7514 10.7229 14.5329 11.0088C14.4007 11.1818 14.2405 11.3676 14.0993 11.5312C14.022 11.6208 13.9504 11.7038 13.8923 11.7744C13.8795 11.79 13.8669 11.8057 13.8542 11.8213C13.8458 11.8316 13.8363 11.8413 13.8278 11.8516C13.8021 12.5916 13.6224 13.2001 13.2868 13.6855C12.9232 14.2115 12.4119 14.5462 11.8425 14.7598C10.7571 15.1668 9.3485 15.1671 8.06317 15.167H7.99969C7.72383 15.1668 7.49987 14.9429 7.49969 14.667C7.49969 14.391 7.72372 14.1672 7.99969 14.167C9.36408 14.167 10.5941 14.1595 11.4909 13.8232C11.9214 13.6618 12.2439 13.4339 12.4636 13.1162C12.578 12.9506 12.6719 12.7476 12.737 12.4961C12.6773 12.4992 12.6171 12.4999 12.5573 12.4951C12.319 12.4757 12.0912 12.3723 11.8493 12.2617C11.8308 12.2532 11.8124 12.2439 11.7936 12.2354C11.7801 12.2292 11.7651 12.2227 11.7497 12.2158C11.5121 12.1097 11.0647 11.9097 10.8942 11.4053C10.8323 11.2217 10.8332 11.0253 10.8337 10.8428V7.82324C10.8332 7.64091 10.8324 7.44497 10.8942 7.26172C11.0647 6.75714 11.5122 6.5563 11.7497 6.4502C11.7651 6.4433 11.7801 6.43682 11.7936 6.43066C11.8123 6.42217 11.8309 6.41373 11.8493 6.40527C12.0911 6.2946 12.319 6.19025 12.5573 6.1709C12.6496 6.16343 12.7422 6.16935 12.8337 6.18066V6C12.8337 3.75944 10.7339 1.83301 7.99969 1.83301C5.26569 1.83317 3.16669 3.75954 3.16669 6V6.17773C3.25285 6.16659 3.34449 6.16303 3.44208 6.1709C3.68041 6.19017 3.90831 6.29463 4.15009 6.40527C4.16867 6.41378 4.18796 6.42212 4.20673 6.43066C4.22118 6.43725 4.23527 6.44463 4.24969 6.45117C4.43133 6.53353 4.60966 6.61395 4.75165 6.7373C5.16673 7.09829 5.16691 7.57493 5.16669 7.85059V10.8164C5.16691 11.0921 5.1667 11.5687 4.75165 11.9297C4.60966 12.053 4.43132 12.1334 4.24969 12.2158C4.23527 12.2223 4.22118 12.2298 4.20673 12.2363C4.18797 12.2449 4.16865 12.2532 4.15009 12.2617C3.90831 12.3723 3.6804 12.4768 3.44208 12.4961C2.74592 12.5522 2.35592 12.077 2.12665 11.7979C2.12029 11.7901 2.11323 11.7818 2.10712 11.7744C2.04918 11.704 1.978 11.6214 1.90106 11.5322C1.75981 11.3686 1.59873 11.1819 1.46649 11.0088C1.24817 10.723 1.02927 10.3802 0.920593 9.98242C0.80429 9.55635 0.80421 9.10965 0.920593 8.68359C0.999501 8.39501 1.14245 8.1404 1.33075 7.87305C1.51321 7.61402 1.75923 7.31545 2.06317 6.94629L2.07587 6.93066C2.08823 6.91565 2.10138 6.89949 2.11493 6.88281C2.13087 6.8632 2.14902 6.84368 2.16669 6.82227V6C2.16669 3.08601 4.84299 0.833177 7.99969 0.833008ZM3.362 7.16797C3.27937 7.16129 3.2266 7.18029 3.16083 7.22949C3.07179 7.29613 2.98787 7.39574 2.84735 7.56641C2.52812 7.95414 2.30641 8.22449 2.14813 8.44922C1.99365 8.66856 1.92161 8.81503 1.88544 8.94727C1.81615 9.20093 1.81615 9.46606 1.88544 9.71973C1.94459 9.93594 2.07479 10.1581 2.26141 10.4023C2.38142 10.5593 2.4971 10.6934 2.61981 10.835C2.70216 10.9299 2.788 11.0284 2.87958 11.1396C3.00945 11.2974 3.0911 11.3881 3.17157 11.4453C3.23105 11.4876 3.28133 11.5055 3.362 11.499C3.40171 11.4958 3.45698 11.4786 3.79169 11.3262C4.04606 11.2103 4.07809 11.1898 4.0954 11.1748C4.12525 11.1489 4.13817 11.1272 4.14813 11.0869C4.16279 11.0274 4.16669 10.9481 4.16669 10.7969V7.87012C4.16669 7.719 4.16277 7.63952 4.14813 7.58008C4.13817 7.53974 4.12525 7.51812 4.0954 7.49219C4.07809 7.47715 4.04622 7.45674 3.79169 7.34082C3.45698 7.18838 3.40171 7.17121 3.362 7.16797ZM12.6384 7.16797C12.5986 7.17118 12.5432 7.18802 12.2077 7.34082C12.0613 7.40748 11.9791 7.44621 11.9157 7.49219C11.8674 7.52719 11.8514 7.55189 11.8415 7.58105C11.8406 7.58494 11.8384 7.59814 11.8366 7.62793C11.8334 7.6794 11.8337 7.74829 11.8337 7.86914V10.7969C11.8337 10.9179 11.8334 10.9866 11.8366 11.0381C11.8385 11.0689 11.8407 11.0824 11.8415 11.0859C11.8514 11.1151 11.8673 11.1397 11.9157 11.1748C11.9791 11.2208 12.0613 11.2595 12.2077 11.3262C12.5432 11.479 12.5986 11.4958 12.6384 11.499C12.7098 11.5048 12.7788 11.4887 12.8337 11.458C12.8589 11.4438 12.8935 11.4147 13.1208 11.1387C13.2121 11.0277 13.2974 10.9297 13.3796 10.835C13.5023 10.6934 13.6189 10.5594 13.739 10.4023C13.9257 10.1579 14.0559 9.93508 14.1149 9.71875C14.1841 9.46523 14.1842 9.20078 14.1149 8.94727C14.0788 8.8149 14.007 8.6679 13.8522 8.44824C13.694 8.22355 13.4721 7.95402 13.153 7.56641C13.1073 7.51094 13.0766 7.47221 13.0505 7.43848C13.0286 7.41022 13.0087 7.38591 12.985 7.35742C12.9666 7.33947 12.9507 7.31943 12.9352 7.29883C12.8869 7.2457 12.8548 7.2208 12.8337 7.20898C12.7787 7.17819 12.7099 7.1622 12.6384 7.16797Z" fill="#161616"/>
</svg>
