<svg width="16" height="16" viewBox="0 0 16 16" fill="none" xmlns="http://www.w3.org/2000/svg">
  <path d="M4.12897 9.8916C6.49833 8.48078 9.50179 8.48078 11.8712 9.8916C11.9486 9.93771 12.0442 9.99168 12.1524 10.0527C12.6276 10.3208 13.3458 10.7263 13.838 11.208C14.1457 11.5093 14.4381 11.9062 14.4913 12.3926C14.5478 12.9097 14.3226 13.395 13.8702 13.8262C13.0892 14.5702 12.1517 15.167 10.9395 15.167H5.06061C3.8484 15.167 2.91091 14.5702 2.12994 13.8262C1.67744 13.395 1.45233 12.9097 1.50885 12.3926C1.56201 11.9062 1.85439 11.5093 2.16217 11.208C2.65428 10.7264 3.37255 10.3208 3.84772 10.0527C3.95594 9.99168 4.05153 9.93771 4.12897 9.8916ZM11.3594 10.751C9.30532 9.52787 6.6948 9.52787 4.64069 10.751C4.52882 10.8176 4.40578 10.8871 4.2774 10.96C3.80241 11.2294 3.24802 11.5444 2.86139 11.9229C2.62146 12.1577 2.51843 12.3512 2.50201 12.501C2.48902 12.6199 2.51995 12.8163 2.82037 13.1025C3.51085 13.7603 4.21243 14.167 5.06061 14.167H10.9395C11.7877 14.167 12.4893 13.7603 13.1797 13.1025C13.4802 12.8163 13.5101 12.6199 13.4971 12.501C13.4807 12.3513 13.3786 12.1576 13.1387 11.9229C12.752 11.5443 12.1968 11.2295 11.7217 10.96C11.5935 10.8872 11.4712 10.8175 11.3594 10.751ZM8.00006 0.833008C9.93286 0.833112 11.4999 2.40022 11.5001 4.33301C11.5001 6.26594 9.93297 7.8329 8.00006 7.83301C6.06706 7.83301 4.50006 6.266 4.50006 4.33301C4.50024 2.40016 6.06717 0.833008 8.00006 0.833008ZM8.00006 1.83301C6.61946 1.83301 5.50024 2.95245 5.50006 4.33301C5.50006 5.71372 6.61935 6.83301 8.00006 6.83301C9.38068 6.8329 10.5001 5.71366 10.5001 4.33301C10.4999 2.95251 9.38058 1.83311 8.00006 1.83301Z" fill="#161616"/>
</svg>
