<svg width="16" height="16" viewBox="0 0 16 16" fill="none" xmlns="http://www.w3.org/2000/svg">
  <path d="M7.00293 3.15283C7.47619 3.1529 7.89602 3.44042 8.06934 3.88037L8.67578 5.42041C9.01582 6.28694 9.70961 6.9732 10.5762 7.31982L12.1162 7.92627C12.5562 8.0996 12.8428 8.52032 12.8428 8.99365C12.8426 9.46682 12.5561 9.88675 12.1162 10.0601L10.5762 10.6665C9.70951 11.0065 9.02245 11.7002 8.67578 12.5669L8.06934 14.1069C7.89595 14.5467 7.47609 14.8334 7.00293 14.8335C6.52974 14.8335 6.10996 14.5467 5.93652 14.1069L5.3291 12.5669C4.98913 11.7003 4.29627 11.0132 3.42969 10.6665L1.88965 10.0601C1.44976 9.88677 1.16323 9.46684 1.16309 8.99365C1.16309 8.52032 1.44965 8.0996 1.88965 7.92627L3.42969 7.31982C4.29605 6.97985 4.98241 6.28674 5.3291 5.42041L5.93652 3.88037C6.10986 3.44037 6.5296 3.15283 7.00293 3.15283ZM7.00293 4.1665C6.95626 4.1665 6.89581 4.18025 6.86914 4.26025L6.2627 5.80029C5.82265 6.92014 4.92263 7.8203 3.80273 8.26025L2.2627 8.8667C2.18965 8.8933 2.16907 8.95292 2.16895 8.99951C2.16895 9.04617 2.18274 9.10663 2.2627 9.1333L3.80273 9.73975C4.92265 10.1797 5.82266 11.0798 6.2627 12.1997L6.86914 13.7397C6.92914 13.8931 7.07574 13.8931 7.13574 13.7397L7.74316 12.1997C8.18322 11.0799 9.08325 10.1797 10.2031 9.73975L11.7432 9.1333C11.8162 9.10657 11.8359 9.0461 11.8359 8.99951C11.8359 8.95298 11.8226 8.89335 11.7432 8.8667L10.2031 8.26025C9.08327 7.82031 8.18323 6.92009 7.74316 5.80029L7.13574 4.26025C7.10911 4.18701 7.04957 4.16655 7.00293 4.1665ZM12.3369 1.16748C12.6436 1.16748 12.9169 1.35445 13.0303 1.64111L13.2568 2.22119C13.3502 2.46783 13.551 2.66107 13.791 2.75439L14.3701 2.98096C14.6567 3.09427 14.8369 3.36087 14.8369 3.66748C14.8369 3.97402 14.6507 4.24742 14.3643 4.36084L13.791 4.5874C13.5444 4.68071 13.3502 4.88069 13.2568 5.12061L13.0303 5.70068C12.9169 5.98735 12.6502 6.17432 12.3369 6.17432V6.16748C12.0304 6.16735 11.7568 5.98041 11.6436 5.69385L11.417 5.11475C11.3237 4.86808 11.1238 4.6739 10.8838 4.58057L10.3037 4.354C10.0172 4.24061 9.83691 3.97405 9.83691 3.66748C9.83697 3.36087 10.0239 3.08744 10.3105 2.97412L10.8838 2.74756C11.1304 2.65424 11.3236 2.45429 11.417 2.21436L11.6436 1.64111C11.7568 1.35455 12.0304 1.16761 12.3369 1.16748ZM12.3369 2.61475C12.1369 3.08777 11.7572 3.47417 11.2842 3.66748C11.7574 3.86084 12.1436 4.24792 12.3369 4.72119C12.5369 4.24786 12.9173 3.86081 13.3906 3.66748C12.9174 3.47418 12.5303 3.08796 12.3369 2.61475Z" fill="#161616"/>
</svg>
