<svg width="16" height="16" viewBox="0 0 16 16" fill="none" xmlns="http://www.w3.org/2000/svg">
  <path d="M12 1.83301C13.3806 1.83301 14.4998 2.95245 14.5 4.33301C14.5 5.71372 13.3807 6.83301 12 6.83301C11.1669 6.83301 10.4309 6.42443 9.97656 5.79785L6.43262 7.43262C6.47501 7.61509 6.5 7.80463 6.5 8C6.5 8.19504 6.47487 8.38422 6.43262 8.56641L9.97656 10.2012C10.4309 9.57496 11.1672 9.16699 12 9.16699C13.3807 9.16699 14.5 10.2863 14.5 11.667C14.4998 13.0476 13.3806 14.167 12 14.167C10.6194 14.167 9.50018 13.0476 9.5 11.667C9.5 11.4763 9.52305 11.2907 9.56348 11.1123L6.01465 9.47363C5.55977 10.0945 4.82861 10.5 4 10.5C2.61929 10.5 1.5 9.38071 1.5 8C1.5 6.61929 2.61929 5.5 4 5.5C4.82833 5.5 5.55973 5.90493 6.01465 6.52539L9.56348 4.88672C9.52319 4.70858 9.5 4.52333 9.5 4.33301C9.50018 2.95245 10.6194 1.83301 12 1.83301ZM12 10.167C11.1716 10.167 10.5 10.8386 10.5 11.667C10.5002 12.4953 11.1717 13.167 12 13.167C12.8283 13.167 13.4998 12.4953 13.5 11.667C13.5 10.8386 12.8284 10.167 12 10.167ZM4 6.5C3.17157 6.5 2.5 7.17157 2.5 8C2.5 8.82843 3.17157 9.5 4 9.5C4.82843 9.5 5.5 8.82843 5.5 8C5.5 7.17157 4.82843 6.5 4 6.5ZM12 2.83301C11.1717 2.83301 10.5002 3.50473 10.5 4.33301C10.5 5.16144 11.1716 5.83301 12 5.83301C12.8284 5.83301 13.5 5.16144 13.5 4.33301C13.4998 3.50473 12.8283 2.83301 12 2.83301Z" fill="#161616"/>
</svg>
