<svg width="22" height="22" viewBox="0 0 22 22" fill="none" xmlns="http://www.w3.org/2000/svg">
    <g clip-path="url(#clip0_119_362)">
        <path d="M19.25 4.58333C18.2325 4.2625 17.1141 4.125 16.0416 4.125C14.2541 4.125 12.3291 4.49167 11 5.5C9.67079 4.49167 7.74579 4.125 5.95829 4.125C4.17079 4.125 2.24579 4.49167 0.916626 5.5V18.9292C0.916626 19.1583 1.14579 19.3875 1.37496 19.3875C1.46663 19.3875 1.51246 19.3417 1.60413 19.3417C2.84163 18.7458 4.62913 18.3333 5.95829 18.3333C7.74579 18.3333 9.67079 18.7 11 19.7083C12.2375 18.9292 14.4833 18.3333 16.0416 18.3333C17.5541 18.3333 19.1125 18.6083 20.3958 19.2958C20.4875 19.3417 20.5333 19.3417 20.625 19.3417C20.8541 19.3417 21.0833 19.1125 21.0833 18.8833V5.5C20.5333 5.0875 19.9375 4.8125 19.25 4.58333ZM19.25 16.9583C18.2416 16.6375 17.1416 16.5 16.0416 16.5C14.4833 16.5 12.2375 17.0958 11 17.875V7.33333C12.2375 6.55417 14.4833 5.95833 16.0416 5.95833C17.1416 5.95833 18.2416 6.09583 19.25 6.41667V16.9583Z" fill="#A4A4A4"/>
        <path d="M16.0416 9.625C16.8483 9.625 17.6275 9.7075 18.3333 9.86333V8.47C17.6091 8.3325 16.83 8.25 16.0416 8.25C14.4833 8.25 13.0716 8.51583 11.9166 9.01083V10.5325C12.9525 9.94583 14.3916 9.625 16.0416 9.625Z" fill="#A4A4A4"/>
        <path d="M11.9166 11.4492V12.9709C12.9525 12.3842 14.3916 12.0634 16.0416 12.0634C16.8483 12.0634 17.6275 12.1459 18.3333 12.3017V10.9084C17.6091 10.7709 16.83 10.6884 16.0416 10.6884C14.4833 10.6884 13.0716 10.9634 11.9166 11.4492Z" fill="#A4A4A4"/>
        <path d="M16.0416 13.1359C14.4833 13.1359 13.0716 13.4017 11.9166 13.8967V15.4184C12.9525 14.8317 14.3916 14.5109 16.0416 14.5109C16.8483 14.5109 17.6275 14.5934 18.3333 14.7492V13.3559C17.6091 13.2092 16.83 13.1359 16.0416 13.1359Z" fill="#A4A4A4"/>
    </g>
    <defs>
        <clipPath id="clip0_119_362">
            <rect width="22" height="22" fill="white"/>
        </clipPath>
    </defs>
</svg>
