<svg width="24" height="24" viewBox="0 0 24 24" fill="none" xmlns="http://www.w3.org/2000/svg">
    <path opacity="0.4" d="M6.96387 12.8223C9.00019 11.9826 10.7901 12.2677 11.7002 12.4346C12.3606 12.5556 12.7499 13.1593 12.75 13.7451V20.2041C12.75 20.899 12.1692 21.633 11.3105 21.4814C10.4626 21.3315 9.08567 21.1629 7.53613 21.8018C5.53661 22.6262 3.5355 22.7803 2.42676 22.7451C1.65925 22.7208 1.25008 22.0354 1.25 21.457V14.9951C1.25 14.2956 1.79851 13.6406 2.56543 13.6553C3.54174 13.6741 5.26405 13.5231 6.96387 12.8223ZM16.9639 1.82227C19.0002 0.982604 20.7901 1.26773 21.7002 1.43457C22.3606 1.55564 22.7499 2.15934 22.75 2.74512V9.2041C22.75 9.899 22.1692 10.633 21.3105 10.4814C20.4626 10.3315 19.0857 10.1629 17.5361 10.8018C15.5366 11.6262 13.5355 11.7803 12.4268 11.7451C11.6592 11.7208 11.2501 11.0354 11.25 10.457V3.99512C11.25 3.29555 11.7985 2.6406 12.5654 2.65527C13.5417 2.67411 15.2641 2.52313 16.9639 1.82227Z" fill="white"/>
    <path d="M22 13.25C22.4142 13.25 22.75 13.5858 22.75 14C22.75 16.943 20.8719 19.442 18.249 20.3672C17.5447 20.6156 16.7873 20.75 16 20.75C15.7402 20.75 15.499 20.6155 15.3623 20.3945C15.2257 20.1735 15.2131 19.8974 15.3291 19.665L16.1865 17.9502C16.2997 17.724 16.5192 17.5702 16.7705 17.541C17.0219 17.5119 17.2716 17.6112 17.4336 17.8057L18.2256 18.7578C20.014 17.9212 21.25 16.1064 21.25 14C21.25 13.5858 21.5858 13.25 22 13.25ZM7.00684 16C7.8315 16.0001 8.5 16.6716 8.5 17.5C8.5 18.3284 7.8315 18.9999 7.00684 19H6.99316C6.1685 18.9999 5.5 18.3284 5.5 17.5C5.5 16.6716 6.1685 16.0001 6.99316 16H7.00684ZM8 3.25C8.25982 3.25 8.50101 3.38453 8.6377 3.60547C8.77427 3.82646 8.78693 4.10255 8.6709 4.33496L7.81348 6.0498C7.70029 6.27604 7.48076 6.42975 7.22949 6.45898C6.97807 6.48806 6.72836 6.38881 6.56641 6.19434L5.77441 5.24219C3.986 6.07882 2.75 7.89357 2.75 10C2.75 10.4142 2.41421 10.75 2 10.75C1.58579 10.75 1.25 10.4142 1.25 10C1.25 7.05696 3.12809 4.55797 5.75098 3.63281C6.45532 3.38444 7.21266 3.25 8 3.25ZM17.0068 5C17.8315 5.00007 18.5 5.67162 18.5 6.5C18.5 7.32838 17.8315 7.99993 17.0068 8H16.9932C16.1685 7.99993 15.5 7.32838 15.5 6.5C15.5 5.67162 16.1685 5.00007 16.9932 5H17.0068Z" fill="white"/>
</svg>
