<svg width="24" height="24" viewBox="0 0 24 24" fill="none" xmlns="http://www.w3.org/2000/svg">
    <path opacity="0.4" d="M5.24976 10.0002C5.24976 5.16769 9.16726 1.25018 13.9998 1.25018C18.8322 1.25018 22.7498 5.16769 22.7498 10.0002C22.7498 14.8327 18.8322 18.7502 13.9998 18.7502C9.16726 18.7502 5.24976 14.8327 5.24976 10.0002Z" fill="white"/>
    <path d="M3.52026 9.758C3.65124 9.80491 3.65093 10.0337 3.65015 10.4904C3.65014 10.496 3.65015 10.5015 3.65015 10.507C3.65015 15.9427 8.05722 20.3498 13.4929 20.3498C13.4985 20.3498 13.504 20.3498 13.5095 20.3498C13.9663 20.349 14.195 20.3487 14.2419 20.4797C14.2886 20.6106 14.1237 20.7454 13.7947 21.0148C12.4702 22.0993 10.7768 22.7502 8.9314 22.7502C4.68896 22.7501 1.2498 19.311 1.24976 15.0685C1.24976 13.2231 1.9006 11.5297 2.98511 10.2053C3.25454 9.87623 3.38936 9.71137 3.52026 9.758ZM13.9851 5.25018C14.3992 5.25033 14.7351 5.58606 14.7351 6.00018V6.24042C15.6245 6.4849 16.3557 7.15649 16.5398 8.07538C16.6209 8.48133 16.3578 8.87674 15.9519 8.95819C15.5458 9.03958 15.1505 8.77546 15.0691 8.36932C14.9993 8.02249 14.6031 7.63897 13.9851 7.63885C13.2807 7.63885 12.8876 8.11766 12.8875 8.50214C12.8875 8.80265 12.9661 8.89448 13.0251 8.94159C13.1229 9.01942 13.3792 9.13495 13.9851 9.13495C14.7147 9.13498 15.4223 9.25514 15.9548 9.6662C16.5304 10.1107 16.7497 10.7713 16.7498 11.4982C16.7498 12.2996 16.4206 12.9381 15.8445 13.3478C15.514 13.5828 15.1305 13.7231 14.7351 13.7961V14.0002C14.7351 14.4143 14.3992 14.75 13.9851 14.7502C13.5709 14.7502 13.2351 14.4144 13.2351 14.0002V13.7726C12.2888 13.5448 11.4754 12.8908 11.2673 11.9377C11.1791 11.5332 11.4352 11.1336 11.8396 11.0451C12.2443 10.9568 12.6438 11.2137 12.7322 11.6183C12.8015 11.9349 13.2347 12.3615 13.9851 12.3615C14.4549 12.3615 14.7844 12.2619 14.9753 12.1262C15.1283 12.0174 15.2498 11.849 15.2498 11.4982C15.2497 11.0734 15.1336 10.9277 15.0378 10.8537C14.8987 10.7463 14.5987 10.635 13.9851 10.6349C13.2479 10.6349 12.5797 10.5052 12.0896 10.1144C11.561 9.69293 11.3875 9.09251 11.3875 8.50214C11.3876 7.37221 12.2131 6.52436 13.2351 6.24139V6.00018C13.2351 5.58597 13.5709 5.25018 13.9851 5.25018Z" fill="white"/>
</svg>
