<svg width="25" height="24" viewBox="0 0 25 24" fill="none" xmlns="http://www.w3.org/2000/svg">
    <path opacity="0.4" d="M12.0576 2.19546C13.5048 1.51954 15.3665 1.125 17.375 1.125C18.4948 1.125 19.5655 1.24757 20.5424 1.47133C21.4595 1.68137 22.1575 2.08717 22.5968 2.76245C23.0178 3.40953 23.125 4.19212 23.125 4.98897V13.2181C23.125 13.3856 22.8196 13.458 22.7176 13.3251L22.7144 13.3209C22.6682 13.2606 22.6175 13.2038 22.5626 13.1511L21.425 12.0578C21.4173 12.0504 21.4095 12.0431 21.4016 12.0358C20.3859 11.1006 18.8043 11.1659 17.8691 12.1817C17.84 12.2134 17.8118 12.2456 17.7845 12.2784C17.6673 12.4194 17.6087 12.4899 17.5482 12.5183C17.4876 12.5467 17.4112 12.5467 17.2583 12.5467H17.2527C14.3256 12.5467 11.875 14.8897 11.875 17.875C11.875 17.9358 11.8786 17.9958 11.8856 18.0547C11.9392 18.5031 11.9659 18.7273 11.907 18.8182C11.8481 18.9092 11.71 18.9523 11.4339 19.0385C10.2285 19.4149 8.84085 19.625 7.375 19.625C6.25516 19.625 5.18449 19.5024 4.20755 19.2787C3.33189 19.0781 2.64024 18.6861 2.19144 18.0238C1.75742 17.3832 1.625 16.5966 1.625 15.761V4.98897C1.625 3.42178 3.216 2.51272 4.54245 2.81653C5.40489 3.01407 6.363 3.125 7.375 3.125C9.20065 3.125 10.8398 2.76427 12.0576 2.19546Z" fill="white"/>
    <path d="M22.375 16.875C22.9273 16.875 23.375 17.3227 23.375 17.875C23.375 20.0056 21.6223 21.7031 19.4971 21.7031H18.0273C18.0787 21.9988 17.9963 22.3149 17.7773 22.5527C17.4032 22.9588 16.7705 22.9844 16.3643 22.6104L15.2266 21.5176C15.158 21.428 14.8149 20.9701 15.0596 20.3896C15.3002 19.8186 15.8564 19.7369 15.9658 19.7217C16.1057 19.7022 16.2687 19.7029 16.3672 19.7031H19.4971C20.5505 19.7031 21.375 18.8685 21.375 17.875C21.375 17.3227 21.8227 16.875 22.375 16.875ZM18.9727 13.1973C19.3468 12.7912 19.9795 12.7656 20.3857 13.1396L21.5234 14.2324C21.592 14.322 21.9351 14.7799 21.6904 15.3604C21.4498 15.9314 20.8936 16.0131 20.7842 16.0283C20.6443 16.0478 20.4813 16.0471 20.3828 16.0469H17.2529C16.1995 16.0469 15.375 16.8815 15.375 17.875C15.375 18.4273 14.9273 18.875 14.375 18.875C13.8227 18.875 13.375 18.4273 13.375 17.875C13.375 15.7444 15.1277 14.0469 17.2529 14.0469H18.7227C18.6713 13.7512 18.7537 13.4351 18.9727 13.1973ZM12.375 7.375C14.0319 7.375 15.375 8.71815 15.375 10.375C15.375 12.0319 14.0319 13.375 12.375 13.375C10.7181 13.375 9.375 12.0319 9.375 10.375C9.375 8.71815 10.7181 7.375 12.375 7.375ZM5.875 10.375C6.42728 10.375 6.875 10.8227 6.875 11.375V11.3838C6.875 11.9361 6.42728 12.3838 5.875 12.3838C5.32272 12.3838 4.875 11.9361 4.875 11.3838V11.375C4.875 10.8227 5.32272 10.375 5.875 10.375ZM18.875 8.36719C19.4273 8.36719 19.875 8.8149 19.875 9.36719V9.37598C19.875 9.92826 19.4273 10.376 18.875 10.376C18.3227 10.376 17.875 9.92826 17.875 9.37598V9.36719C17.875 8.8149 18.3227 8.36719 18.875 8.36719Z" fill="white"/>
</svg>
