<svg width="25" height="24" viewBox="0 0 25 24" fill="none" xmlns="http://www.w3.org/2000/svg">
    <path opacity="0.4" d="M10.498 13.25C12.378 13.25 14.1382 13.6406 15.6182 14.3105C17.0977 14.9906 17.748 16.53 17.748 17.9697C17.748 18.3997 17.748 18.8702 17.708 19.2002C17.658 19.5501 17.5481 19.9303 17.2383 20.2402C16.9284 20.5501 16.5581 20.6599 16.1982 20.71C15.8783 20.75 15.4778 20.75 15.0479 20.75H5.95801C5.52801 20.75 5.12762 20.75 4.80762 20.71C4.44768 20.6599 4.07752 20.5502 3.76758 20.2402C3.45765 19.9303 3.34787 19.5501 3.29785 19.2002C3.25785 18.8702 3.25781 18.3997 3.25781 17.9697C3.25789 16.5299 3.90798 14.9906 5.3877 14.3105H5.37793C6.85793 13.6405 8.61805 13.25 10.498 13.25ZM10.5 3.25C12.85 3.25 14.75 5.15 14.75 7.5C14.75 9.85 12.85 11.75 10.5 11.75C8.15 11.75 6.25 9.85 6.25 7.5C6.25 5.15 8.15 3.25 10.5 3.25Z" fill="white"/>
    <path d="M16.5859 13.4062C17.6758 13.5862 18.6955 13.8867 19.6055 14.3066C21.0853 14.9866 21.7362 16.5259 21.7363 17.9658C21.7363 18.3958 21.7363 18.8663 21.6963 19.1963C21.6463 19.5463 21.5356 19.9263 21.2256 20.2363C20.9156 20.5461 20.5455 20.6561 20.1855 20.7061C19.8657 20.746 19.4659 20.7461 19.0361 20.7461H18.4258C18.7657 20.2662 18.8855 19.7464 18.9355 19.3564C18.9855 18.9566 18.9863 18.4066 18.9863 18.0166V17.9658C18.9862 16.3459 18.3058 14.4362 16.5859 13.4062ZM14.4961 3.25C16.8459 3.25025 18.7461 5.15016 18.7461 7.5C18.7461 9.84984 16.8459 11.7497 14.4961 11.75C14.3361 11.75 14.1756 11.7397 14.0156 11.7197C15.2256 10.7097 15.9961 9.19994 15.9961 7.5C15.9961 5.80006 15.2256 4.29027 14.0156 3.28027C14.1756 3.26027 14.3361 3.25 14.4961 3.25Z" fill="white"/>
</svg>
