<svg width="67" height="75" viewBox="0 0 67 75" fill="none" xmlns="http://www.w3.org/2000/svg">
    <path d="M39.0264 10.8058C41.8394 7.64808 43.5682 6.23042 46.9637 4.43809V57.0198L39.0264 58.66V10.8058Z" fill="white"/>
    <path d="M64.387 37.2414C66.0325 33.7681 66.2261 32.2244 66.6667 28.6613L5.82523 41.8724C4.38244 45.0862 3.91802 46.8827 3.69568 50.0733L64.387 37.2414Z" fill="white"/>
    <path d="M64.387 53.3469C66.0325 49.8736 66.2261 48.33 66.6667 44.7668L39.3168 50.5557C39.1232 53.7395 39.3455 55.3729 39.1232 58.5635L64.387 53.3469Z" fill="white"/>
    <path d="M64.387 69.4502C66.0325 65.9769 66.2261 64.4332 66.6667 60.8701L41.7367 66.2819C40.4783 68.0186 39.7039 70.913 39.1232 74.6668L64.387 69.4502Z" fill="white"/>
    <path d="M24.7973 63.9664C27.2172 60.9755 29.7339 57.2128 31.4762 54.1255L2.12954 60.4864C0.686757 63.7002 0.222341 65.4967 0 68.6872L24.7973 63.9664Z" fill="white"/>
    <path d="M23.539 6.3677C26.352 3.20999 28.0808 1.79233 31.4763 0V54.3184L23.539 55.9585V6.3677Z" fill="white"/>
</svg>
