<svg width="24" height="24" viewBox="0 0 24 24" fill="none" xmlns="http://www.w3.org/2000/svg">
    <path d="M3.5 10V15C3.5 17.8284 3.5 19.2426 4.37867 20.1213C5.25735 21 6.67157 21 9.5 21H14.5C17.3284 21 18.7427 21 19.6213 20.1213C20.5 19.2426 20.5 17.8284 20.5 15V10" stroke="#5C5C5C" stroke-width="1.5" stroke-linecap="round" stroke-linejoin="round"/>
    <path d="M17 7.50147C17 8.88218 15.8807 9.9996 14.5 9.9996C13.1193 9.9996 12 8.88031 12 7.4996C12 8.88031 10.8807 9.9996 9.5 9.9996C8.11928 9.9996 7 8.88031 7 7.4996C7 8.88031 5.82653 9.9996 4.37899 9.9996C3.59982 9.9996 2.90006 9.6753 2.41998 9.1605C1.5946 8.27543 2.12559 6.97366 2.81446 5.98805L3.202 5.45814C4.08384 4.25233 4.52476 3.64943 5.16491 3.32457C5.80506 2.99971 6.55199 2.99981 8.04585 3.00001L15.9551 3.00106C17.4485 3.00126 18.1952 3.00136 18.8351 3.32621C19.475 3.65106 19.9158 4.25377 20.7974 5.4592L21.1855 5.98992C21.8744 6.97552 22.4054 8.27729 21.58 9.16236C21.0999 9.67717 20.4002 10.0014 19.621 10.0014C18.1734 10.0014 17 8.88218 17 7.50147Z" stroke="#5C5C5C" stroke-width="1.5" stroke-linecap="round" stroke-linejoin="round"/>
    <path d="M14.9971 17C14.3133 17.6072 13.2247 18 11.9985 18C10.7723 18 9.68376 17.6072 9 17" stroke="#5C5C5C" stroke-width="1.5" stroke-linecap="round" stroke-linejoin="round"/>
</svg>
