<svg width="25" height="25" viewBox="0 0 25 25" fill="none" xmlns="http://www.w3.org/2000/svg">
    <path opacity="0.4" d="M3.42126 13.4111C3.49223 13.3517 3.62425 13.3737 3.88708 13.418C4.05577 13.4464 4.21543 13.4631 4.36072 13.4736C4.71079 13.499 5.12291 13.4991 5.53943 13.499H10.6996C10.8881 13.499 10.9828 13.499 11.0414 13.5576C11.0997 13.6162 11.1 13.7102 11.1 13.8984V23.1924C11.1 23.2231 11.0751 23.249 11.0443 23.249C9.44172 23.249 8.16263 23.2481 7.15955 23.1133C6.12344 22.974 5.27018 22.6789 4.59509 22.0039C3.92005 21.3289 3.62409 20.4755 3.48474 19.4395C3.34989 18.4364 3.34996 17.1571 3.34998 15.5547V13.8398C3.34998 13.5942 3.35041 13.471 3.42126 13.4111ZM20.3129 13.418C20.5757 13.3737 20.7077 13.3517 20.7787 13.4111C20.8495 13.471 20.85 13.5942 20.85 13.8398V15.5547C20.85 17.1571 20.8501 18.4364 20.7152 19.4395C20.5759 20.4755 20.2799 21.3289 19.6049 22.0039C18.9298 22.6789 18.0765 22.974 17.0404 23.1133C16.0373 23.2481 14.7582 23.249 13.1556 23.249C13.1249 23.249 13.1 23.2231 13.1 23.1924V13.8984C13.1 13.7102 13.1002 13.6162 13.1586 13.5576C13.2171 13.499 13.3118 13.499 13.5004 13.499H18.6605C19.077 13.4991 19.4892 13.499 19.8392 13.4736C19.9845 13.4631 20.1442 13.4464 20.3129 13.418Z" fill="#161616"/>
    <path d="M8.24255 1.75C9.81433 1.75 11.2122 2.49641 12.1 3.6543C12.9877 2.49641 14.3856 1.75 15.9574 1.75H16.3138C17.8524 1.75 19.1 2.99762 19.1 4.53613C19.0999 5.34842 18.8693 6.10657 18.4711 6.75H18.6273C19.0715 6.74999 19.445 6.75039 19.7494 6.77246C20.0653 6.79538 20.3721 6.84453 20.6644 6.97949C20.9956 7.13246 21.2916 7.36238 21.5072 7.66113C21.7109 7.94342 21.7866 8.24793 21.8197 8.54004C21.8496 8.80437 21.85 9.12122 21.85 9.46387V9.53613C21.85 9.87878 21.8496 10.1956 21.8197 10.46C21.7866 10.7521 21.7109 11.0566 21.5072 11.3389C21.2916 11.6376 20.9956 11.8675 20.6644 12.0205C20.3721 12.1555 20.0653 12.2046 19.7494 12.2275C19.445 12.2496 19.0715 12.25 18.6273 12.25H5.57263C5.12844 12.25 4.75494 12.2496 4.45056 12.2275C4.13469 12.2046 3.8278 12.1555 3.53552 12.0205C3.20435 11.8675 2.90836 11.6376 2.69275 11.3389C2.48904 11.0566 2.41334 10.7521 2.38025 10.46C2.35034 10.1956 2.34994 9.87877 2.34998 9.53613V9.46387C2.34994 9.12123 2.35034 8.80437 2.38025 8.54004C2.41334 8.24794 2.48904 7.94342 2.69275 7.66113C2.90836 7.36238 3.20435 7.13246 3.53552 6.97949C3.8278 6.84453 4.13469 6.79538 4.45056 6.77246C4.75494 6.75039 5.12844 6.74999 5.57263 6.75H5.72888C5.33066 6.10657 5.10005 5.34842 5.09998 4.53613C5.09998 2.99762 6.3476 1.75 7.88611 1.75H8.24255ZM7.88611 3.75C7.45217 3.75 7.09998 4.1022 7.09998 4.53613C7.1002 5.75872 8.09126 6.74977 9.31384 6.75H11.1V6.60742C11.1 5.02947 9.82051 3.75 8.24255 3.75H7.88611ZM15.9574 3.75C14.3794 3.75 13.1 5.02947 13.1 6.60742V6.75H14.8861C16.1087 6.74977 17.0997 5.75872 17.1 4.53613C17.1 4.1022 16.7478 3.75 16.3138 3.75H15.9574Z" fill="#161616"/>
</svg>
