<svg width="25" height="25" viewBox="0 0 25 25" fill="none" xmlns="http://www.w3.org/2000/svg">
    <path opacity="0.4" d="M6.14977 10.5002C6.14977 5.66775 10.0673 1.75024 14.8998 1.75024C19.7323 1.75024 23.6498 5.66775 23.6498 10.5002C23.6498 15.3327 19.7323 19.2502 14.8998 19.2502C10.0673 19.2502 6.14977 15.3327 6.14977 10.5002Z" fill="black"/>
    <path d="M4.42027 10.2581C4.55125 10.305 4.55094 10.5337 4.55016 10.9905C4.55015 10.996 4.55016 11.0015 4.55016 11.0071C4.55016 16.4428 8.95723 20.8499 14.3929 20.8499C14.3985 20.8499 14.404 20.8499 14.4095 20.8499C14.8663 20.8491 15.095 20.8488 15.142 20.9797C15.1886 21.1106 15.0237 21.2455 14.6947 21.5149C13.3702 22.5994 11.6768 23.2502 9.83141 23.2502C5.58897 23.2502 2.14981 19.811 2.14977 15.5686C2.14977 13.7232 2.80061 12.0298 3.88512 10.7053C4.15455 10.3763 4.28937 10.2114 4.42027 10.2581ZM14.8851 5.75024C15.2992 5.7504 15.6351 6.08612 15.6351 6.50024V6.74048C16.5245 6.98496 17.2557 7.65655 17.4398 8.57544C17.521 8.98139 17.2578 9.3768 16.8519 9.45825C16.4458 9.53964 16.0505 9.27552 15.9691 8.86938C15.8994 8.52255 15.5031 8.13903 14.8851 8.13892C14.1807 8.13892 13.7876 8.61772 13.7875 9.0022C13.7875 9.30271 13.8661 9.39454 13.9252 9.44165C14.0229 9.51949 14.2792 9.63501 14.8851 9.63501C15.6147 9.63504 16.3224 9.7552 16.8548 10.1663C17.4304 10.6108 17.6498 11.2714 17.6498 11.9983C17.6498 12.7996 17.3206 13.4381 16.7445 13.8479C16.414 14.0829 16.0305 14.2231 15.6351 14.2961V14.5002C15.6351 14.9144 15.2992 15.2501 14.8851 15.2502C14.4709 15.2502 14.1351 14.9145 14.1351 14.5002V14.2727C13.1888 14.0449 12.3754 13.3908 12.1673 12.4377C12.0791 12.0332 12.3352 11.6336 12.7396 11.5452C13.1443 11.4568 13.5438 11.7137 13.6322 12.1184C13.7015 12.435 14.1347 12.8616 14.8851 12.8616C15.3549 12.8615 15.6844 12.762 15.8754 12.6262C16.0283 12.5175 16.1498 12.3491 16.1498 11.9983C16.1498 11.5735 16.0336 11.4278 15.9379 11.3538C15.7987 11.2464 15.4987 11.135 14.8851 11.135C14.1479 11.135 13.4797 11.0053 12.9896 10.6145C12.461 10.193 12.2875 9.59257 12.2875 9.0022C12.2876 7.87227 13.1131 7.02443 14.1351 6.74146V6.50024C14.1351 6.08603 14.4709 5.75024 14.8851 5.75024Z" fill="black"/>
</svg>
