<svg xmlns="http://www.w3.org/2000/svg" width="67.134" height="67.134" viewBox="0 0 67.134 67.134">
  <g id="Group_308" data-name="Group 308" transform="translate(-728.015 -4673.35)">
    <path id="Path_801" data-name="Path 801" d="M728.015,4720.685c1.746.008,3.492.022,5.239.024q6.844,0,13.69,0h.845v.845q0,9.072,0,18.144c0,.262.016.523.024.785h-19.8Zm15.722,15.835v-11.751h-11.72v11.751Z" fill="#1a1818"/>
    <path id="Path_802" data-name="Path 802" d="M775.35,4740.484c.008-1.725.023-3.45.024-5.175q0-6.847,0-13.694v-.844h19.774v19.713Zm4.073-15.732v11.739h11.729v-11.739Z" fill="#1a1818"/>
    <path id="Path_803" data-name="Path 803" d="M728.015,4673.35h11.816v3.942h-7.857v7.859h-3.959Z" fill="#1a1818"/>
    <path id="Path_804" data-name="Path 804" d="M728.015,4697.083c.894-.015,1.787-.041,2.681-.043q4.16-.009,8.319,0h.815v11.806h-3.911v-7.828h-7.9Z" fill="#1a1818"/>
    <path id="Path_805" data-name="Path 805" d="M728.015,4704.95h3.926v7.864h3.932v3.949c-.26.012-.493.032-.726.031q-3.565-.018-7.132-.043Z" fill="#1a1818"/>
    <path id="Path_806" data-name="Path 806" d="M728.015,4689.085l9.681.032c.567,0,1.134.011,1.7,0,.32-.008.485.085.481.438-.011,1.046-.015,2.093,0,3.14.008.547-.372.43-.678.43q-5.266.006-10.533,0c-.218,0-.435.016-.653.024Z" fill="#1a1818"/>
    <path id="Path_807" data-name="Path 807" d="M751.748,4740.484v-3.9h9.834v3.9Z" fill="#1a1818"/>
    <path id="Path_808" data-name="Path 808" d="M765.516,4740.484v-3.9h5.9v3.9Z" fill="#1a1818"/>
    <path id="Path_809" data-name="Path 809" d="M795.1,4693.087H775.418v-19.693H795.1Zm-15.675-15.754v11.734h11.723v-11.734Z" fill="#1a1818"/>
    <path id="Path_810" data-name="Path 810" d="M771.427,4689.171v19.668H767.52v-15.695h-5.9v-3.973Z" fill="#1a1818"/>
    <path id="Path_811" data-name="Path 811" d="M751.7,4724.664v-2.511c0-1.551-.029-3.1.015-4.651.017-.6-.185-.741-.746-.718-1.043.042-2.089.012-3.184.012v-3.928h7.855v7.825h5.9v3.971Z" fill="#1a1818"/>
    <path id="Path_812" data-name="Path 812" d="M743.814,4708.841v-7.792h3.953v3.858h13.761v3.934Z" fill="#1a1818"/>
    <path id="Path_813" data-name="Path 813" d="M747.737,4685.17H735.948v-3.912h7.818v-7.867h3.971Z" fill="#1a1818"/>
    <path id="Path_814" data-name="Path 814" d="M787.261,4700.982v7.867h-3.927v-11.761H795.1v3.894Z" fill="#1a1818"/>
    <path id="Path_815" data-name="Path 815" d="M761.554,4681.267v3.928h-5.873v7.885h-3.933v-11.813Z" fill="#1a1818"/>
    <path id="Path_816" data-name="Path 816" d="M761.623,4728.61h5.864v-7.857h3.931v11.815h-9.8Z" fill="#1a1818"/>
    <path id="Path_817" data-name="Path 817" d="M795.1,4716.759H787.29v-3.934h3.9V4705H795.1Z" fill="#1a1818"/>
    <path id="Path_818" data-name="Path 818" d="M761.639,4673.387h9.786v3.858h-9.786Z" fill="#1a1818"/>
    <path id="Path_819" data-name="Path 819" d="M771.429,4712.874v3.868h-9.8v-3.868Z" fill="#1a1818"/>
    <path id="Path_820" data-name="Path 820" d="M751.742,4697.076h9.8v3.9h-9.8Z" fill="#1a1818"/>
    <path id="Path_821" data-name="Path 821" d="M747.741,4697.031h-3.892a1.8,1.8,0,0,1-.063-.322c0-2.357-.01-4.715.01-7.072,0-.173.2-.49.311-.494,1.194-.036,2.391-.022,3.634-.022Z" fill="#1a1818"/>
    <path id="Path_822" data-name="Path 822" d="M775.409,4716.752v-3.876h7.876v3.876Z" fill="#1a1818"/>
    <path id="Path_823" data-name="Path 823" d="M751.738,4677.244V4673.4h5.851v3.844Z" fill="#1a1818"/>
    <path id="Path_824" data-name="Path 824" d="M771.421,4685.17h-5.865v-3.9h5.865Z" fill="#1a1818"/>
    <path id="Path_825" data-name="Path 825" d="M757.616,4728.672v3.89h-5.865v-3.89Z" fill="#1a1818"/>
    <path id="Path_826" data-name="Path 826" d="M779.338,4708.849h-3.929V4705h3.929Z" fill="#1a1818"/>
    <path id="Path_827" data-name="Path 827" d="M743.8,4712.882v3.863h-3.934v-3.863Z" fill="#1a1818"/>
    <path id="Path_828" data-name="Path 828" d="M779.338,4700.99h-3.907V4697.1h3.907Z" fill="#1a1818"/>
    <path id="Path_829" data-name="Path 829" d="M735.95,4728.661h3.864v3.909H735.95Z" fill="#1a1818"/>
    <path id="Path_830" data-name="Path 830" d="M787.244,4728.675v3.884h-3.9v-3.884Z" fill="#1a1818"/>
    <path id="Path_831" data-name="Path 831" d="M783.33,4685.169v-3.9h3.9v3.9Z" fill="#1a1818"/>
  </g>
</svg>
