<svg xmlns="http://www.w3.org/2000/svg" width="1539.329" height="1466.212" viewBox="0 0 1539.329 1466.212">
    <g id="translate_icon" transform="translate(0.374 0.342)">
        <g id="ع_color" data-name="ع  color">
            <path id="Path_1" data-name="Path 1" d="M92.279-.342h393q10.611,179.194-135.891,297.016Q205.621,402.132,23.561,370.84q-11.345-2.154-22.391-5.3Q.4,324.4-.374,283.607V85.832Q10.165,24.795,73.749,3.543,83.087,1.238,92.279-.342Z" fill="#630a0d" fill-rule="evenodd"/>
            <path id="Path_2" data-name="Path 2" d="M478.841-.342h84.568Q572.472,177.832,442.652,310.3a420.094,420.094,0,0,1-55.235,45.906q-1.414.714,0,1.035-73.735,15.449-126.47,64.2a1.234,1.234,0,0,0-1.143-.691Q132.118,461.94-.374,435.937V277.165q.762,39.867,1.524,80.076,10.9,3.074,22.094,5.178Q202.889,393,344.752,289.936,489.31,174.787,478.841-.342Z" fill="#630a0d" fill-rule="evenodd"/>
            <path id="Path_3" data-name="Path 3" d="M553.916,0H698.383q49.4,140.462,98.807,280.957Q854.97,446.791,913.213,612.5c0,.456.247.684.748.684q9.129,27.063,18.714,54a1.089,1.089,0,0,0,.748,1.367Q952.68,723.536,971.6,778.613a1.958,1.958,0,0,0-1.5.342Q699.057,1037.1,311.391,1103.66a1328.613,1328.613,0,0,1-266.479,16.07Q6.481,1095.355,0,1052.73v-620.7q130.173,25.75,255.625-15.039a1.212,1.212,0,0,1,1.123.684q-84.742,86.582-59.509,200.976Q226.749,722.831,333.1,768.7q93.35,35.4,188.631,4.1,81.99-29.419,117.894-102.881,31.29-68.3,15.345-140.82-112.092-1.024-224.56-.684V604.3H570.384q-11.179,69.465-82.339,96.045-79.8,25.409-148.21-19.141-65.88-49.782-59.509-128.174,13.457-82.572,96.936-115.869a171.407,171.407,0,0,1,102.549-1.367,142.414,142.414,0,0,1,47.906,26.318q32.151-26.967,62.877-55.371-62.27-52.335-147.461-56.4-16.094-.684-32.187,0-15,1.677-29.942,3.76-1.389-.318,0-1.026a413.446,413.446,0,0,0,54.269-45.459Q562.821,176.44,553.916,0Z" fill="#630a0d" fill-rule="evenodd"/>
            <path id="Path_10" data-name="Path 10" d="M971.225,778.272q27.474,77.991,55.4,155.859a33.647,33.647,0,0,0,1.49,5.469,1.676,1.676,0,0,1-1.12-.684Q888.549,1055.907,720.465,1134.77q9.724.51,19.462.34v.68q-323.367.18-646.734-.34a103.32,103.32,0,0,1-48.655-16.07,1328.608,1328.608,0,0,0,266.479-16.06q387.665-66.57,658.711-324.707A1.958,1.958,0,0,1,971.225,778.272Z" fill="#630a0d" fill-rule="evenodd" opacity="0.998"/>
            <path id="Path_11" data-name="Path 11" d="M1028.11,939.6q10.665,30.567,21.71,60.84,23.205,66.645,46.41,133.3-177.774,2.055-356.3,1.37-9.738.165-19.462-.34,168.084-78.87,306.525-195.854A1.68,1.68,0,0,0,1028.11,939.6Z" fill="#630a0d" fill-rule="evenodd"/>
            <path id="Path_13" data-name="Path 13" d="M1095.48,1136.47,834.991,1399.66h-.748q-47-131.52-93.567-263.19Q918.078,1135.12,1095.48,1136.47Z" fill="#630a0d" fill-rule="evenodd"/>
            <path id="Path_104" data-name="Path 104" d="M299.5,0C464.909,0,599,124.465,599,278S464.909,556,299.5,556,0,431.535,0,278,134.091,0,299.5,0Z" transform="translate(151 290)" fill="#630a0d"/>
        </g>
        <g id="A_color" data-name="A color">
            <path id="Path_5" data-name="Path 5" d="M820.769,280.615H1215.25q24.51.854,49.4,1.026-5.715,20.375-11.98,40.673a184.853,184.853,0,0,1-22.45.684q.18,32.814-.38,65.625a1011.423,1011.423,0,0,1-81.96,166.8V523.975q-31.245-.853-62.88-1.026Q952.253,402.231,820.769,280.615Z" fill="#e2e2e2" fill-rule="evenodd"/>
            <path id="Path_100" data-name="Path 100" d="M790.089,279.244,1423.88,288.6,1008.03,874.456Z" fill="#dcdcdc"/>
            <path id="Path_101" data-name="Path 101" d="M1380.25,270.838l158.7,591.36H1007.82Z" fill="#dcdcdc"/>
            <path id="Path_102" data-name="Path 102" d="M1228.48,1465.87l-248.746-653.1,545.972,153.164Z" fill="#dcdcdc"/>
            <path id="Path_6" data-name="Path 6" d="M1215.25,280.615q113.4-.171,226.8.342,64.515,8.686,86.46,64.6a152.262,152.262,0,0,1,4.12,17.09V1317.63q-13.8,69.345-89.83,82.03H834.991l260.489-263.19q2.265-1.065.75-2.73-23.2-66.66-46.41-133.3,13.23-10.194,26.2-20.85,28.635-24.785,55.77-50.928,62.055,61.3,128.37,118.948,25.44,22.38,51.27,44.43l48.66-44.43a3.075,3.075,0,0,0-1.87-3.08q-25.68-21.57-51.65-42.72-65.085-56.535-127.63-115.531c-.63-1.032-1.25-2.057-1.87-3.076a971.128,971.128,0,0,0,69.24-85.107,441.761,441.761,0,0,0,46.78-84.082,250.337,250.337,0,0,0,14.23-46.485h130.24V612.158H1147.88V555.42a1011.423,1011.423,0,0,0,81.96-166.8q.57-32.811.38-65.625a184.853,184.853,0,0,0,22.45-.684q6.255-20.3,11.98-40.674Q1239.765,281.469,1215.25,280.615Z" fill="#dcdcdc" fill-rule="evenodd"/>
        </g>
        <path id="A" d="M1144.74,988h-55.4l160.23-436.364h54.54L1464.34,988h-55.4L1278.55,620.67h-3.41Zm20.45-170.455h223.3V864.42h-223.3Z" fill="#630a0d"/>
        <path id="ع" d="M442.683,262.822A132.153,132.153,0,0,0,429.9,286.24q-7.268,7.066-14.915,14.411-4.947.869-4.261,5.4-6.631-.535-12.784-.9-7.948,5.916-6.392,13.511a168.919,168.919,0,0,1-36.222,18.013,41.3,41.3,0,0,1-20.242,0,46.28,46.28,0,0,1-14.915,5.4q-9.69-5.17-13.849,3.6a102.378,102.378,0,0,0-19.176,3.6,138.964,138.964,0,0,0-20.242,1.8q-5.373.293-7.457,3.6-8.022-1.206-12.784,3.6-7.026-1.028-10.654,3.6a88.3,88.3,0,0,0-11.719,3.6,20.467,20.467,0,0,1-7.457-9.007,13.237,13.237,0,0,0-4.262,5.4,4.3,4.3,0,0,1,4.262,2.7q-7.959,9.484,3.2,2.7a96.662,96.662,0,0,0,3.2,19.815,16.719,16.719,0,0,0,8.523,1.8A21.112,21.112,0,0,0,242.4,399.726Q268.53,436,319.1,435.753a4.1,4.1,0,0,0,2.131,2.7,278.041,278.041,0,0,0,44.744,0,107.667,107.667,0,0,0,23.438-6.3Q461,414.679,530.042,390.719a26.076,26.076,0,0,1,2.131,14.411,7.409,7.409,0,0,1-2.131,7.2,40.483,40.483,0,0,0-10.654,21.617,19.907,19.907,0,0,1-8.522,9.907Q491.737,450,472.513,455.568a161.647,161.647,0,0,0-38.352,11.709q-7.457.9-14.915,1.8l2.13,1.8a23.311,23.311,0,0,1-10.653,3.6,4.785,4.785,0,0,0-2.131,4.5A61.278,61.278,0,0,0,383.024,491.6q0,1.8-2.131,1.8a12.2,12.2,0,0,0-6.392.9,67.13,67.13,0,0,0-12.784,9.908A92.219,92.219,0,0,1,346.8,515.013q-5.365-.581-6.392,3.6a23.149,23.149,0,0,1-12.784,9.007,10.582,10.582,0,0,1-7.458-1.8q.5,11.79-11.718,7.206a58.22,58.22,0,0,1-6.392,11.709,2.955,2.955,0,0,0,2.13,2.7,210.7,210.7,0,0,0,38.353,5.4,99.864,99.864,0,0,0,19.176,2.7q61.779,1.35,123.58.9,40.669,2.273,80.967,7.206,15.507,7,31.96,12.609a23.025,23.025,0,0,1,12.784,9.007,112.763,112.763,0,0,0,21.307,27.021,248.524,248.524,0,0,1,8.523,82.862v3.6a158.285,158.285,0,0,0-12.784,37.829,27.907,27.907,0,0,0-8.523,18.013,9.851,9.851,0,0,0-6.392,3.6,7.98,7.98,0,0,1-3.2-1.8l-2.131,7.205-2.13-1.8q-.406,3.45,3.2,6.3a17.57,17.57,0,0,0-2.131,8.106,9.3,9.3,0,0,1-2.131,5.4q-7.98,1.7-8.523,9.007a2.843,2.843,0,0,1-2.13,3.6,6.687,6.687,0,0,0-5.327,1.8,84.3,84.3,0,0,0-9.588,14.411,22.965,22.965,0,0,1-8.523,7.205,16.541,16.541,0,0,0-8.523,7.2,29.608,29.608,0,0,1-17.045,5.405v9.006h-2.131a27.054,27.054,0,0,1-14.915,3.6v5.4a132.362,132.362,0,0,0-34.091,16.212q-11.912-.013-19.176,7.206h-2.131a96.063,96.063,0,0,0-31.96,9.007h-4.262a733.291,733.291,0,0,1-100.142,0,130.1,130.1,0,0,0-36.222-10.809,10.992,10.992,0,0,1-2.131-7.2,12.215,12.215,0,0,1-6.392-.9,22.978,22.978,0,0,1,2.131-7.205,26.952,26.952,0,0,1-14.915,1.8,38.884,38.884,0,0,0-14.915-9.907,51.332,51.332,0,0,1-12.784-10.808q.037-7.14-8.523-7.206v-1.8q-1.1-7.29-8.523-10.808a2.844,2.844,0,0,1-2.13-3.6Q220.693,790.071,211.5,767.2a82.459,82.459,0,0,0-9.588-30.623,200.238,200.238,0,0,1,0-72.055,303.992,303.992,0,0,0,10.653-45.034v-1.8a76,76,0,0,0,12.785-28.822q8.427-5.355,8.522-14.411,9.316-5.812,10.654-16.212a11.578,11.578,0,0,1,4.261-7.206q-6.49-4.525-12.784-9.006a9.057,9.057,0,0,0-2.131-5.4q3.73-.9,7.458-1.8,28.185,9.327,37.287-14.411,11.72-4.5,17.045-14.411,7.213-2.87,7.458-9.006a34.264,34.264,0,0,0-15.98-3.6h-2.131q-8.946-9.3-23.438-9.007a82.5,82.5,0,0,1-29.829-14.411,15.824,15.824,0,0,0-10.654-7.205,13.083,13.083,0,0,1-6.392-5.4,14.484,14.484,0,0,0-8.523-9.007,65.016,65.016,0,0,0-9.588-18.014q-15.216-39.939,1.066-79.26a10,10,0,0,1,4.261-7.2q4.494-1.278,4.261-5.4,13.932-10.884,27.7-21.617a13.289,13.289,0,0,1,8.523-3.6,77.575,77.575,0,0,0,29.83-10.809,131.384,131.384,0,0,1,29.83-5.4,169.554,169.554,0,0,0,53.267-9.007,78.062,78.062,0,0,0,36.222-10.808,81.409,81.409,0,0,1,14.915-7.2q10.651-3.6,14.914-12.61A26.387,26.387,0,0,1,429.9,246.61a17.157,17.157,0,0,0,8.523-8.106,6.643,6.643,0,0,1,7.457.9A105.526,105.526,0,0,0,442.683,262.822ZM293.535,567.253a299.771,299.771,0,0,0,66.051,23.417,26.961,26.961,0,0,0,14.915,3.6,26.958,26.958,0,0,0,14.915,3.6h2.131a620.6,620.6,0,0,0,93.75,10.808h4.262q22.935,3.105,46.875,5.4a29.821,29.821,0,0,0,12.784,1.8,26.95,26.95,0,0,0,14.915,3.6q10.512,4.48,21.307,9.007a34.744,34.744,0,0,0,12.784,9.007q16.7,17.13,17.046,39.63a121.92,121.92,0,0,1-10.654,43.232,102.678,102.678,0,0,0-10.653,16.213,492.144,492.144,0,0,1-55.4,48.636,31.826,31.826,0,0,0-12.784,7.206,27.746,27.746,0,0,0-14.915,7.205,81.053,81.053,0,0,0-21.307,9.007,200.534,200.534,0,0,0-34.091,10.808l-38.353,5.4a236.149,236.149,0,0,1-66.051-1.8h-2.131a200.05,200.05,0,0,1-40.483-14.411,38.723,38.723,0,0,0-10.654-3.6,58.2,58.2,0,0,0-17.045-10.808A63.144,63.144,0,0,0,263.7,781.615a21.1,21.1,0,0,0-10.653-10.808q.232-4.126-4.262-5.405A21.611,21.611,0,0,0,242.4,756.4q-6.549-14.619-12.784-28.822a160.428,160.428,0,0,0-2.131-16.212,176.779,176.779,0,0,1,8.523-68.452,425.106,425.106,0,0,1,25.568-50.438q10.554-11.643,21.307-23.418v-1.8A8.777,8.777,0,0,1,293.535,567.253Z" fill="#fff" fill-rule="evenodd" opacity="0.996"/>
    </g>
</svg>
